<svg xmlns="http://www.w3.org/2000/svg" width="155" height="155" viewBox="0 0 155 155" fill="none">
<g clip-path="url(#clip0_392_3651)">
<path opacity="0.5" d="M77.4984 155C34.7662 155 0 120.232 0 77.4984C0 34.7645 34.7662 0 77.4984 0C120.231 0 155 34.7645 155 77.4984C155 120.232 120.232 155 77.4984 155ZM77.4984 6.59574C38.4021 6.59574 6.59574 38.4021 6.59574 77.4984C6.59574 116.595 38.4021 148.404 77.4984 148.404C116.595 148.404 148.404 116.595 148.404 77.4984C148.404 38.4021 116.596 6.59574 77.4984 6.59574Z" fill="#111111"/>
<path opacity="0.5" d="M97.3004 102.509C96.5106 102.509 95.7191 102.227 95.0876 101.655L75.2855 83.7165C74.5946 83.0915 74.2021 82.2028 74.2021 81.2728V42.7783C74.2021 40.9579 75.6796 39.4805 77.5 39.4805C79.3204 39.4805 80.7979 40.9579 80.7979 42.7783V79.8102L99.5166 96.7678C100.865 97.9913 100.969 100.077 99.7475 101.426C99.0961 102.145 98.1991 102.509 97.3004 102.509Z" fill="#111111"/>
</g>
<defs>
<clipPath id="clip0_392_3651">
<rect width="155" height="155" fill="white"/>
</clipPath>
</defs>
</svg>