<svg xmlns="http://www.w3.org/2000/svg" width="132" height="163" viewBox="0 0 132 163" fill="none">
<g opacity="0.5">
<path d="M39.2633 148.753H30.4628C28.1378 148.753 26.252 146.867 26.252 144.542V125.804C26.252 119.122 28.9343 112.72 33.6963 108.035L45.3169 96.604" stroke="white" stroke-width="6.5" stroke-linecap="round" stroke-linejoin="round"/>
<path d="M57.7317 100.69C69.3121 100.69 78.6998 91.3023 78.6998 79.722C78.6998 68.1416 69.3121 58.7539 57.7317 58.7539C46.1514 58.7539 36.7637 68.1416 36.7637 79.722C36.7637 91.3023 46.1514 100.69 57.7317 100.69Z" stroke="white" stroke-width="6.5" stroke-linecap="round" stroke-linejoin="round"/>
<path d="M87.8899 117.034C86.6284 113.676 84.6435 110.597 82.0387 108.035L70.418 96.604" stroke="white" stroke-width="6.5" stroke-linecap="round" stroke-linejoin="round"/>
<path d="M104.056 159C117.367 159 128.158 148.209 128.158 134.897C128.158 121.586 117.367 110.795 104.056 110.795C90.7442 110.795 79.9531 121.586 79.9531 134.897C79.9531 148.209 90.7442 159 104.056 159Z" stroke="white" stroke-width="6.5" stroke-linecap="round" stroke-linejoin="round"/>
<path d="M115.078 127.772L101.752 141.098C100.517 142.333 98.5146 142.333 97.2746 141.098L93.0293 136.852" stroke="white" stroke-width="6.5" stroke-linecap="round" stroke-linejoin="round"/>
<path d="M84.3288 148.753H15.1083C8.97293 148.753 4 143.78 4 137.645V36.8862C4 30.7507 8.97293 25.7778 15.1083 25.7778H100.617C106.752 25.7778 111.725 30.7507 111.725 36.8862V112.044" stroke="white" stroke-width="6.5" stroke-linecap="round" stroke-linejoin="round"/>
<path d="M19.3633 15.1083C19.3633 8.97292 24.3362 4 30.4716 4H115.98C122.115 4 127.088 8.97292 127.088 15.1083V106.817" stroke="white" stroke-width="6.5" stroke-linecap="round" stroke-linejoin="round"/>
</g>
</svg>