<?xml version="1.0" encoding="utf-8"?>
<!-- Generator: Adobe Illustrator 25.0.0, SVG Export Plug-In . SVG Version: 6.00 Build 0)  -->
<svg version="1.1" id="Layer_1" xmlns="http://www.w3.org/2000/svg" xmlns:xlink="http://www.w3.org/1999/xlink" x="0px" y="0px"
	 viewBox="0 0 359.1 352.8" style="enable-background:new 0 0 359.1 352.8;" xml:space="preserve">
<path d="M359,352.8c-2.8-0.5-2.2-3.1-2.6-4.8c-4.8-20.4-16-36.5-32.5-49.3c-16.2-12.5-34.6-17.9-54.8-17.9c-34.2,0.1-68.3,0-102.5,0
	c-39.9,0-75.5-27.6-85.1-66.4c-1.6-6.4-2.6-13-2.6-19.7c0.1-35.1,0.1-70.2,0-105.4c0-24.8-9.1-46.1-26.7-63.4
	C38.6,12.7,22.2,4.2,2.9,2.1C1.5,1.9,0.2,1.9,0,0.1c118.2,0,236.3,0,354.5-0.1c3.7,0,4.6,0.8,4.6,4.6
	C358.9,120.7,359,236.7,359,352.8z"/>
</svg>
