<svg xmlns="http://www.w3.org/2000/svg" width="1091" height="1091" viewBox="0 0 1091 1091" fill="none">
<path fill-rule="evenodd" clip-rule="evenodd" d="M531.545 0.0576172H559.634C564.979 0.0576172 569.381 4.35022 569.381 9.7945V37.9582C569.381 43.2977 565.083 47.695 559.634 47.695H531.545C526.2 47.695 521.798 43.4024 521.798 37.9582V9.7945C521.798 4.45492 526.095 0.0576172 531.545 0.0576172ZM753.14 328.186H685.748C680.403 328.186 676.001 332.583 676.001 337.923V390.377C676.001 395.821 671.599 400.113 666.254 400.113H598.862C593.517 400.113 589.115 395.716 589.115 390.377V337.923C589.115 332.479 584.713 328.186 579.368 328.186H511.976C506.631 328.186 502.229 332.583 502.229 337.923V390.377C502.229 395.821 497.827 400.113 492.482 400.113H425.09C419.745 400.113 415.343 395.716 415.343 390.377V337.923C415.343 332.479 410.941 328.186 405.596 328.186H338.204C332.859 328.186 328.457 332.583 328.457 337.923V405.348C328.457 410.793 332.859 415.085 338.204 415.085H390.608C395.954 415.085 400.355 419.483 400.355 424.822V492.247C400.355 497.692 395.954 501.984 390.608 501.984H338.204C332.859 501.984 328.457 506.382 328.457 511.721V579.146C328.457 584.591 332.859 588.883 338.204 588.883H390.608C395.954 588.883 400.355 593.281 400.355 598.62V666.045C400.355 671.49 395.954 675.782 390.608 675.782H338.204C332.859 675.782 328.457 680.18 328.457 685.519V752.945C328.457 758.389 332.859 762.681 338.204 762.681H405.596C410.941 762.681 415.343 758.284 415.343 752.945V700.491C415.343 695.047 419.745 690.754 425.09 690.754H492.482C497.827 690.754 502.229 695.151 502.229 700.491V752.945C502.229 758.389 506.631 762.681 511.976 762.681H579.368C584.713 762.681 589.115 758.284 589.115 752.945V700.491C589.115 695.047 593.517 690.754 598.862 690.754H666.254C671.599 690.754 676.001 695.151 676.001 700.491V752.945C676.001 758.389 680.403 762.681 685.748 762.681H753.14C758.485 762.681 762.887 758.284 762.887 752.945V685.519C762.887 680.075 758.485 675.782 753.14 675.782H700.736C695.391 675.782 690.989 671.385 690.989 666.045V598.62C690.989 593.176 695.391 588.883 700.736 588.883H753.14C758.485 588.883 762.887 584.486 762.887 579.146V511.721C762.887 506.277 758.485 501.984 753.14 501.984H700.736C695.391 501.984 690.989 497.587 690.989 492.247V424.822C690.989 419.378 695.391 415.085 700.736 415.085H753.14C758.485 415.085 762.887 410.688 762.887 405.348V337.923C762.887 332.479 758.485 328.186 753.14 328.186ZM471.101 564.279C471.101 569.724 466.699 574.016 461.354 574.016H424.985C419.64 574.016 415.238 569.619 415.238 564.279V526.902C415.238 521.458 419.64 517.165 424.985 517.165H461.354C466.804 517.165 471.101 521.563 471.101 526.902V564.279ZM574.128 666.15C574.128 671.594 569.726 675.887 564.38 675.887H526.964C521.514 675.887 517.217 671.49 517.217 666.15V629.82C517.217 624.376 521.619 620.083 526.964 620.083H564.38C569.83 620.083 574.128 624.481 574.128 629.82V666.15ZM574.128 461.257C574.128 466.701 569.726 470.994 564.38 470.994H526.964C521.514 470.994 517.217 466.596 517.217 461.257V424.927C517.217 419.483 521.619 415.19 526.964 415.19H564.38C569.83 415.19 574.128 419.587 574.128 424.927V461.257ZM676.001 564.279C676.001 569.724 671.599 574.016 666.254 574.016H629.886C624.54 574.016 620.138 569.619 620.138 564.279V526.902C620.138 521.458 624.54 517.165 629.886 517.165H666.254C671.599 517.165 676.001 521.563 676.001 526.902V564.279ZM305.661 775.657H263.737C258.392 775.657 253.99 780.055 253.99 785.394V827.378C253.99 832.822 258.392 837.115 263.737 837.115H305.661C311.111 837.115 315.408 832.718 315.408 827.378V785.394C315.408 779.95 311.006 775.657 305.661 775.657ZM907.387 173.961H879.298C873.953 173.961 869.551 178.358 869.551 183.698V211.862C869.551 217.306 873.953 221.598 879.298 221.598H907.387C912.837 221.598 917.134 217.201 917.134 211.862V183.698C917.134 178.254 912.732 173.961 907.387 173.961ZM1053.05 521.768H1081.25C1086.59 521.768 1090.99 526.061 1090.99 531.505V559.669C1090.99 565.008 1086.7 569.405 1081.25 569.405H1053.05C1047.71 569.405 1043.31 565.113 1043.31 559.669V531.505C1043.31 526.165 1047.6 521.768 1053.05 521.768ZM37.8963 521.768H9.80772C4.35769 521.768 0.0605469 526.165 0.0605469 531.505V559.669C0.0605469 565.113 4.46249 569.405 9.80772 569.405H37.8963C43.3464 569.405 47.6435 565.008 47.6435 559.669V531.505C47.6435 526.061 43.2416 521.768 37.8963 521.768ZM183.792 869.461H211.88C217.225 869.461 221.627 873.754 221.627 879.198V907.362C221.627 912.701 217.33 917.098 211.88 917.098H183.792C178.446 917.098 174.044 912.806 174.044 907.362V879.198C174.044 873.858 178.446 869.461 183.792 869.461ZM559.634 1043.36H531.545C526.095 1043.36 521.798 1047.76 521.798 1053.1V1081.26C521.798 1086.71 526.2 1091 531.545 1091H559.634C565.083 1091 569.381 1086.6 569.381 1081.26V1053.1C569.381 1047.66 564.979 1043.36 559.634 1043.36ZM879.298 869.461H907.387C912.732 869.461 917.134 873.754 917.134 879.198V907.362C917.134 912.701 912.837 917.098 907.387 917.098H879.298C873.953 917.098 869.551 912.806 869.551 907.362V879.198C869.551 873.858 873.953 869.461 879.298 869.461ZM218.816 514.856H176.893C171.443 514.856 167.146 519.253 167.146 524.593V566.576C167.146 572.021 171.548 576.313 176.893 576.313H218.816C224.266 576.313 228.563 571.916 228.563 566.576V524.593C228.563 519.148 224.161 514.856 218.816 514.856ZM263.737 253.96H305.661C311.006 253.96 315.408 258.253 315.408 263.697V305.681C315.408 311.021 311.111 315.418 305.661 315.418H263.737C258.392 315.418 253.99 311.125 253.99 305.681V263.697C253.99 258.358 258.392 253.96 263.737 253.96ZM211.88 173.961H183.792C178.446 173.961 174.044 178.358 174.044 183.698V211.862C174.044 217.306 178.446 221.598 183.792 221.598H211.88C217.33 221.598 221.627 217.201 221.627 211.862V183.698C221.627 178.254 217.225 173.961 211.88 173.961ZM524.633 167.049H566.556C571.901 167.049 576.303 171.341 576.303 176.786V218.769C576.303 224.109 572.006 228.506 566.556 228.506H524.633C519.287 228.506 514.885 224.214 514.885 218.769V176.786C514.885 171.446 519.183 167.049 524.633 167.049ZM827.291 253.96H785.367C779.917 253.96 775.62 258.358 775.62 263.697V305.681C775.62 311.125 780.022 315.418 785.367 315.418H827.291C832.741 315.418 837.038 311.021 837.038 305.681V263.697C837.038 258.253 832.636 253.96 827.291 253.96ZM524.633 862.669H566.556C571.901 862.669 576.303 866.962 576.303 872.406V914.39C576.303 919.73 572.006 924.127 566.556 924.127H524.633C519.287 924.127 514.885 919.834 514.885 914.39V872.406C514.885 867.067 519.183 862.669 524.633 862.669ZM827.291 775.657H785.367C779.917 775.657 775.62 780.055 775.62 785.394V827.378C775.62 832.822 780.022 837.115 785.367 837.115H827.291C832.741 837.115 837.038 832.718 837.038 827.378V785.394C837.038 779.95 832.636 775.657 827.291 775.657ZM872.386 514.856H914.309C919.655 514.856 924.057 519.148 924.057 524.593V566.576C924.057 571.916 919.655 576.313 914.309 576.313H872.386C867.041 576.313 862.639 572.021 862.639 566.576V524.593C862.639 519.253 867.041 514.856 872.386 514.856Z" fill="white"/>
</svg>